<mxfile host="app.diagrams.net" modified="2023-05-26T03:23:12.701Z" agent="Mozilla/5.0 (Windows NT 10.0; Win64; x64) AppleWebKit/537.36 (KHTML, like Gecko) Chrome/113.0.0.0 Safari/537.36" etag="VlvI6AziV1kDwe8YBaWN" version="21.3.4" type="github">
  <diagram name="第 1 页" id="-1RtoDrV1E8NqZcKQzuA">
    <mxGraphModel dx="1562" dy="875" grid="1" gridSize="10" guides="1" tooltips="1" connect="1" arrows="1" fold="1" page="1" pageScale="1" pageWidth="827" pageHeight="1169" background="#ffffff" math="0" shadow="0">
      <root>
        <mxCell id="0" />
        <mxCell id="1" parent="0" />
        <mxCell id="bn9qM6ZARCFpn5LCWyF9-1" value="" style="edgeStyle=entityRelationEdgeStyle;endArrow=ERzeroToMany;startArrow=ERone;endFill=1;startFill=0;shadow=1;sketch=1;entryX=0;entryY=0.5;entryDx=0;entryDy=0;fontStyle=1;exitX=1;exitY=0.5;exitDx=0;exitDy=0;" edge="1" parent="1" source="bn9qM6ZARCFpn5LCWyF9-3" target="bn9qM6ZARCFpn5LCWyF9-32">
          <mxGeometry width="100" height="100" relative="1" as="geometry">
            <mxPoint x="880" y="765" as="sourcePoint" />
            <mxPoint x="1100" y="760" as="targetPoint" />
          </mxGeometry>
        </mxCell>
        <mxCell id="bn9qM6ZARCFpn5LCWyF9-2" value="link_role" style="shape=table;startSize=30;container=1;collapsible=1;childLayout=tableLayout;fixedRows=1;rowLines=0;fontStyle=1;align=center;resizeLast=1;shadow=1;sketch=1;strokeColor=#6c8ebf;fillColor=#dae8fc;fontSize=14;rounded=1;" vertex="1" parent="1">
          <mxGeometry x="715" y="800" width="110" height="150" as="geometry" />
        </mxCell>
        <mxCell id="bn9qM6ZARCFpn5LCWyF9-3" value="" style="shape=partialRectangle;collapsible=0;dropTarget=0;pointerEvents=0;top=0;left=0;bottom=1;right=0;points=[[0,0.5],[1,0.5]];portConstraint=eastwest;strokeColor=#6c8ebf;fillColor=#dae8fc;shadow=1;sketch=1;fontStyle=1" vertex="1" parent="bn9qM6ZARCFpn5LCWyF9-2">
          <mxGeometry y="30" width="110" height="30" as="geometry" />
        </mxCell>
        <mxCell id="bn9qM6ZARCFpn5LCWyF9-4" value="PK" style="shape=partialRectangle;connectable=0;top=0;left=0;bottom=0;right=0;fontStyle=1;overflow=hidden;strokeColor=#6c8ebf;fillColor=#dae8fc;shadow=1;sketch=1;" vertex="1" parent="bn9qM6ZARCFpn5LCWyF9-3">
          <mxGeometry width="30" height="30" as="geometry">
            <mxRectangle width="30" height="30" as="alternateBounds" />
          </mxGeometry>
        </mxCell>
        <mxCell id="bn9qM6ZARCFpn5LCWyF9-5" value="role_id" style="shape=partialRectangle;connectable=0;top=0;left=0;bottom=0;right=0;align=left;spacingLeft=6;fontStyle=1;overflow=hidden;strokeColor=#6c8ebf;fillColor=#dae8fc;shadow=1;sketch=1;" vertex="1" parent="bn9qM6ZARCFpn5LCWyF9-3">
          <mxGeometry x="30" width="80" height="30" as="geometry">
            <mxRectangle width="80" height="30" as="alternateBounds" />
          </mxGeometry>
        </mxCell>
        <mxCell id="bn9qM6ZARCFpn5LCWyF9-6" value="" style="shape=partialRectangle;collapsible=0;dropTarget=0;pointerEvents=0;top=0;left=0;bottom=0;right=0;points=[[0,0.5],[1,0.5]];portConstraint=eastwest;strokeColor=#6c8ebf;fillColor=#dae8fc;shadow=1;sketch=1;fontStyle=1" vertex="1" parent="bn9qM6ZARCFpn5LCWyF9-2">
          <mxGeometry y="60" width="110" height="30" as="geometry" />
        </mxCell>
        <mxCell id="bn9qM6ZARCFpn5LCWyF9-7" value="" style="shape=partialRectangle;connectable=0;top=0;left=0;bottom=0;right=0;editable=1;overflow=hidden;strokeColor=#6c8ebf;fillColor=#dae8fc;shadow=1;sketch=1;fontStyle=1" vertex="1" parent="bn9qM6ZARCFpn5LCWyF9-6">
          <mxGeometry width="30" height="30" as="geometry">
            <mxRectangle width="30" height="30" as="alternateBounds" />
          </mxGeometry>
        </mxCell>
        <mxCell id="bn9qM6ZARCFpn5LCWyF9-8" value="" style="shape=partialRectangle;connectable=0;top=0;left=0;bottom=0;right=0;align=left;spacingLeft=6;overflow=hidden;strokeColor=#6c8ebf;fillColor=#dae8fc;shadow=1;sketch=1;fontStyle=1" vertex="1" parent="bn9qM6ZARCFpn5LCWyF9-6">
          <mxGeometry x="30" width="80" height="30" as="geometry">
            <mxRectangle width="80" height="30" as="alternateBounds" />
          </mxGeometry>
        </mxCell>
        <mxCell id="bn9qM6ZARCFpn5LCWyF9-9" value="" style="shape=partialRectangle;collapsible=0;dropTarget=0;pointerEvents=0;top=0;left=0;bottom=0;right=0;points=[[0,0.5],[1,0.5]];portConstraint=eastwest;strokeColor=#6c8ebf;fillColor=#dae8fc;shadow=1;sketch=1;fontStyle=1" vertex="1" parent="bn9qM6ZARCFpn5LCWyF9-2">
          <mxGeometry y="90" width="110" height="30" as="geometry" />
        </mxCell>
        <mxCell id="bn9qM6ZARCFpn5LCWyF9-10" value="" style="shape=partialRectangle;connectable=0;top=0;left=0;bottom=0;right=0;editable=1;overflow=hidden;strokeColor=#6c8ebf;fillColor=#dae8fc;shadow=1;sketch=1;fontStyle=1" vertex="1" parent="bn9qM6ZARCFpn5LCWyF9-9">
          <mxGeometry width="30" height="30" as="geometry">
            <mxRectangle width="30" height="30" as="alternateBounds" />
          </mxGeometry>
        </mxCell>
        <mxCell id="bn9qM6ZARCFpn5LCWyF9-11" value="" style="shape=partialRectangle;connectable=0;top=0;left=0;bottom=0;right=0;align=left;spacingLeft=6;overflow=hidden;strokeColor=#6c8ebf;fillColor=#dae8fc;shadow=1;sketch=1;fontStyle=1" vertex="1" parent="bn9qM6ZARCFpn5LCWyF9-9">
          <mxGeometry x="30" width="80" height="30" as="geometry">
            <mxRectangle width="80" height="30" as="alternateBounds" />
          </mxGeometry>
        </mxCell>
        <mxCell id="bn9qM6ZARCFpn5LCWyF9-12" value="" style="shape=partialRectangle;collapsible=0;dropTarget=0;pointerEvents=0;top=0;left=0;bottom=0;right=0;points=[[0,0.5],[1,0.5]];portConstraint=eastwest;strokeColor=#6c8ebf;fillColor=#dae8fc;shadow=1;sketch=1;fontStyle=1" vertex="1" parent="bn9qM6ZARCFpn5LCWyF9-2">
          <mxGeometry y="120" width="110" height="30" as="geometry" />
        </mxCell>
        <mxCell id="bn9qM6ZARCFpn5LCWyF9-13" value="" style="shape=partialRectangle;connectable=0;top=0;left=0;bottom=0;right=0;editable=1;overflow=hidden;strokeColor=#6c8ebf;fillColor=#dae8fc;shadow=1;sketch=1;fontStyle=1" vertex="1" parent="bn9qM6ZARCFpn5LCWyF9-12">
          <mxGeometry width="30" height="30" as="geometry">
            <mxRectangle width="30" height="30" as="alternateBounds" />
          </mxGeometry>
        </mxCell>
        <mxCell id="bn9qM6ZARCFpn5LCWyF9-14" value="" style="shape=partialRectangle;connectable=0;top=0;left=0;bottom=0;right=0;align=left;spacingLeft=6;overflow=hidden;strokeColor=#6c8ebf;fillColor=#dae8fc;shadow=1;sketch=1;fontStyle=1" vertex="1" parent="bn9qM6ZARCFpn5LCWyF9-12">
          <mxGeometry x="30" width="80" height="30" as="geometry">
            <mxRectangle width="80" height="30" as="alternateBounds" />
          </mxGeometry>
        </mxCell>
        <mxCell id="bn9qM6ZARCFpn5LCWyF9-15" value="link_business_node" style="shape=table;startSize=30;container=1;collapsible=1;childLayout=tableLayout;fixedRows=1;rowLines=0;fontStyle=1;align=center;resizeLast=1;shadow=1;sketch=1;fillColor=#b0e3e6;fontSize=14;strokeColor=#0e8088;rounded=1;" vertex="1" parent="1">
          <mxGeometry x="1290" y="780" width="170" height="150" as="geometry" />
        </mxCell>
        <mxCell id="bn9qM6ZARCFpn5LCWyF9-16" value="" style="shape=partialRectangle;collapsible=0;dropTarget=0;pointerEvents=0;top=0;left=0;bottom=1;right=0;points=[[0,0.5],[1,0.5]];portConstraint=eastwest;strokeColor=#0e8088;fillColor=#b0e3e6;shadow=1;sketch=1;fontStyle=1" vertex="1" parent="bn9qM6ZARCFpn5LCWyF9-15">
          <mxGeometry y="30" width="170" height="30" as="geometry" />
        </mxCell>
        <mxCell id="bn9qM6ZARCFpn5LCWyF9-17" value="PK" style="shape=partialRectangle;connectable=0;top=0;left=0;bottom=0;right=0;fontStyle=1;overflow=hidden;strokeColor=#0e8088;fillColor=#b0e3e6;shadow=1;sketch=1;" vertex="1" parent="bn9qM6ZARCFpn5LCWyF9-16">
          <mxGeometry width="30" height="30" as="geometry">
            <mxRectangle width="30" height="30" as="alternateBounds" />
          </mxGeometry>
        </mxCell>
        <mxCell id="bn9qM6ZARCFpn5LCWyF9-18" value="business_node_id" style="shape=partialRectangle;connectable=0;top=0;left=0;bottom=0;right=0;align=left;spacingLeft=6;fontStyle=1;overflow=hidden;strokeColor=#0e8088;fillColor=#b0e3e6;shadow=1;sketch=1;" vertex="1" parent="bn9qM6ZARCFpn5LCWyF9-16">
          <mxGeometry x="30" width="140" height="30" as="geometry">
            <mxRectangle width="140" height="30" as="alternateBounds" />
          </mxGeometry>
        </mxCell>
        <mxCell id="bn9qM6ZARCFpn5LCWyF9-19" value="" style="shape=partialRectangle;collapsible=0;dropTarget=0;pointerEvents=0;top=0;left=0;bottom=0;right=0;points=[[0,0.5],[1,0.5]];portConstraint=eastwest;strokeColor=#0e8088;fillColor=#b0e3e6;shadow=1;sketch=1;fontStyle=1" vertex="1" parent="bn9qM6ZARCFpn5LCWyF9-15">
          <mxGeometry y="60" width="170" height="30" as="geometry" />
        </mxCell>
        <mxCell id="bn9qM6ZARCFpn5LCWyF9-20" value="" style="shape=partialRectangle;connectable=0;top=0;left=0;bottom=0;right=0;editable=1;overflow=hidden;strokeColor=#0e8088;fillColor=#b0e3e6;shadow=1;sketch=1;fontStyle=1" vertex="1" parent="bn9qM6ZARCFpn5LCWyF9-19">
          <mxGeometry width="30" height="30" as="geometry">
            <mxRectangle width="30" height="30" as="alternateBounds" />
          </mxGeometry>
        </mxCell>
        <mxCell id="bn9qM6ZARCFpn5LCWyF9-21" value="" style="shape=partialRectangle;connectable=0;top=0;left=0;bottom=0;right=0;align=left;spacingLeft=6;overflow=hidden;strokeColor=#0e8088;fillColor=#b0e3e6;shadow=1;sketch=1;fontStyle=1" vertex="1" parent="bn9qM6ZARCFpn5LCWyF9-19">
          <mxGeometry x="30" width="140" height="30" as="geometry">
            <mxRectangle width="140" height="30" as="alternateBounds" />
          </mxGeometry>
        </mxCell>
        <mxCell id="bn9qM6ZARCFpn5LCWyF9-22" value="" style="shape=partialRectangle;collapsible=0;dropTarget=0;pointerEvents=0;top=0;left=0;bottom=0;right=0;points=[[0,0.5],[1,0.5]];portConstraint=eastwest;strokeColor=#0e8088;fillColor=#b0e3e6;shadow=1;sketch=1;fontStyle=1" vertex="1" parent="bn9qM6ZARCFpn5LCWyF9-15">
          <mxGeometry y="90" width="170" height="30" as="geometry" />
        </mxCell>
        <mxCell id="bn9qM6ZARCFpn5LCWyF9-23" value="" style="shape=partialRectangle;connectable=0;top=0;left=0;bottom=0;right=0;editable=1;overflow=hidden;strokeColor=#0e8088;fillColor=#b0e3e6;shadow=1;sketch=1;fontStyle=1" vertex="1" parent="bn9qM6ZARCFpn5LCWyF9-22">
          <mxGeometry width="30" height="30" as="geometry">
            <mxRectangle width="30" height="30" as="alternateBounds" />
          </mxGeometry>
        </mxCell>
        <mxCell id="bn9qM6ZARCFpn5LCWyF9-24" value="" style="shape=partialRectangle;connectable=0;top=0;left=0;bottom=0;right=0;align=left;spacingLeft=6;overflow=hidden;strokeColor=#0e8088;fillColor=#b0e3e6;shadow=1;sketch=1;fontStyle=1" vertex="1" parent="bn9qM6ZARCFpn5LCWyF9-22">
          <mxGeometry x="30" width="140" height="30" as="geometry">
            <mxRectangle width="140" height="30" as="alternateBounds" />
          </mxGeometry>
        </mxCell>
        <mxCell id="bn9qM6ZARCFpn5LCWyF9-25" value="" style="shape=partialRectangle;collapsible=0;dropTarget=0;pointerEvents=0;top=0;left=0;bottom=0;right=0;points=[[0,0.5],[1,0.5]];portConstraint=eastwest;strokeColor=#0e8088;fillColor=#b0e3e6;shadow=1;sketch=1;fontStyle=1" vertex="1" parent="bn9qM6ZARCFpn5LCWyF9-15">
          <mxGeometry y="120" width="170" height="30" as="geometry" />
        </mxCell>
        <mxCell id="bn9qM6ZARCFpn5LCWyF9-26" value="" style="shape=partialRectangle;connectable=0;top=0;left=0;bottom=0;right=0;editable=1;overflow=hidden;strokeColor=#0e8088;fillColor=#b0e3e6;shadow=1;sketch=1;fontStyle=1" vertex="1" parent="bn9qM6ZARCFpn5LCWyF9-25">
          <mxGeometry width="30" height="30" as="geometry">
            <mxRectangle width="30" height="30" as="alternateBounds" />
          </mxGeometry>
        </mxCell>
        <mxCell id="bn9qM6ZARCFpn5LCWyF9-27" value="" style="shape=partialRectangle;connectable=0;top=0;left=0;bottom=0;right=0;align=left;spacingLeft=6;overflow=hidden;strokeColor=#0e8088;fillColor=#b0e3e6;shadow=1;sketch=1;fontStyle=1" vertex="1" parent="bn9qM6ZARCFpn5LCWyF9-25">
          <mxGeometry x="30" width="140" height="30" as="geometry">
            <mxRectangle width="140" height="30" as="alternateBounds" />
          </mxGeometry>
        </mxCell>
        <mxCell id="bn9qM6ZARCFpn5LCWyF9-28" value="link_role_business_rel" style="shape=table;startSize=30;container=1;collapsible=1;childLayout=tableLayout;fixedRows=1;rowLines=0;fontStyle=1;align=center;resizeLast=1;shadow=1;sketch=1;fontSize=14;fillColor=#f5f5f5;strokeColor=#666666;fontColor=#333333;rounded=1;" vertex="1" parent="1">
          <mxGeometry x="970" y="1060" width="180" height="150" as="geometry" />
        </mxCell>
        <mxCell id="bn9qM6ZARCFpn5LCWyF9-29" value="" style="shape=partialRectangle;collapsible=0;dropTarget=0;pointerEvents=0;top=0;left=0;bottom=1;right=0;points=[[0,0.5],[1,0.5]];portConstraint=eastwest;shadow=1;sketch=1;fillColor=#f5f5f5;strokeColor=#666666;fontColor=#333333;fontStyle=1" vertex="1" parent="bn9qM6ZARCFpn5LCWyF9-28">
          <mxGeometry y="30" width="180" height="30" as="geometry" />
        </mxCell>
        <mxCell id="bn9qM6ZARCFpn5LCWyF9-30" value="PK" style="shape=partialRectangle;connectable=0;top=0;left=0;bottom=0;right=0;fontStyle=1;overflow=hidden;shadow=1;sketch=1;fillColor=#f5f5f5;strokeColor=#666666;fontColor=#333333;" vertex="1" parent="bn9qM6ZARCFpn5LCWyF9-29">
          <mxGeometry width="30" height="30" as="geometry">
            <mxRectangle width="30" height="30" as="alternateBounds" />
          </mxGeometry>
        </mxCell>
        <mxCell id="bn9qM6ZARCFpn5LCWyF9-31" value="role_business_rel_id" style="shape=partialRectangle;connectable=0;top=0;left=0;bottom=0;right=0;align=left;spacingLeft=6;fontStyle=1;overflow=hidden;shadow=1;sketch=1;fillColor=#f5f5f5;strokeColor=#666666;fontColor=#333333;" vertex="1" parent="bn9qM6ZARCFpn5LCWyF9-29">
          <mxGeometry x="30" width="150" height="30" as="geometry">
            <mxRectangle width="150" height="30" as="alternateBounds" />
          </mxGeometry>
        </mxCell>
        <mxCell id="bn9qM6ZARCFpn5LCWyF9-32" value="" style="shape=partialRectangle;collapsible=0;dropTarget=0;pointerEvents=0;top=0;left=0;bottom=0;right=0;points=[[0,0.5],[1,0.5]];portConstraint=eastwest;shadow=1;sketch=1;fillColor=#f5f5f5;strokeColor=#666666;fontColor=#333333;fontStyle=1" vertex="1" parent="bn9qM6ZARCFpn5LCWyF9-28">
          <mxGeometry y="60" width="180" height="30" as="geometry" />
        </mxCell>
        <mxCell id="bn9qM6ZARCFpn5LCWyF9-33" value="" style="shape=partialRectangle;connectable=0;top=0;left=0;bottom=0;right=0;editable=1;overflow=hidden;shadow=1;sketch=1;fillColor=#f5f5f5;strokeColor=#666666;fontColor=#333333;fontStyle=1" vertex="1" parent="bn9qM6ZARCFpn5LCWyF9-32">
          <mxGeometry width="30" height="30" as="geometry">
            <mxRectangle width="30" height="30" as="alternateBounds" />
          </mxGeometry>
        </mxCell>
        <mxCell id="bn9qM6ZARCFpn5LCWyF9-34" value="role_id" style="shape=partialRectangle;connectable=0;top=0;left=0;bottom=0;right=0;align=left;spacingLeft=6;overflow=hidden;shadow=1;sketch=1;fillColor=#f5f5f5;strokeColor=#666666;fontColor=#333333;fontStyle=1" vertex="1" parent="bn9qM6ZARCFpn5LCWyF9-32">
          <mxGeometry x="30" width="150" height="30" as="geometry">
            <mxRectangle width="150" height="30" as="alternateBounds" />
          </mxGeometry>
        </mxCell>
        <mxCell id="bn9qM6ZARCFpn5LCWyF9-35" value="" style="shape=partialRectangle;collapsible=0;dropTarget=0;pointerEvents=0;top=0;left=0;bottom=0;right=0;points=[[0,0.5],[1,0.5]];portConstraint=eastwest;shadow=1;sketch=1;fillColor=#f5f5f5;strokeColor=#666666;fontColor=#333333;fontStyle=1" vertex="1" parent="bn9qM6ZARCFpn5LCWyF9-28">
          <mxGeometry y="90" width="180" height="30" as="geometry" />
        </mxCell>
        <mxCell id="bn9qM6ZARCFpn5LCWyF9-36" value="" style="shape=partialRectangle;connectable=0;top=0;left=0;bottom=0;right=0;editable=1;overflow=hidden;shadow=1;sketch=1;fillColor=#f5f5f5;strokeColor=#666666;fontColor=#333333;fontStyle=1" vertex="1" parent="bn9qM6ZARCFpn5LCWyF9-35">
          <mxGeometry width="30" height="30" as="geometry">
            <mxRectangle width="30" height="30" as="alternateBounds" />
          </mxGeometry>
        </mxCell>
        <mxCell id="bn9qM6ZARCFpn5LCWyF9-37" value="business_node_id" style="shape=partialRectangle;connectable=0;top=0;left=0;bottom=0;right=0;align=left;spacingLeft=6;overflow=hidden;shadow=1;sketch=1;fillColor=#f5f5f5;strokeColor=#666666;fontColor=#333333;fontStyle=1" vertex="1" parent="bn9qM6ZARCFpn5LCWyF9-35">
          <mxGeometry x="30" width="150" height="30" as="geometry">
            <mxRectangle width="150" height="30" as="alternateBounds" />
          </mxGeometry>
        </mxCell>
        <mxCell id="bn9qM6ZARCFpn5LCWyF9-38" value="" style="shape=partialRectangle;collapsible=0;dropTarget=0;pointerEvents=0;top=0;left=0;bottom=0;right=0;points=[[0,0.5],[1,0.5]];portConstraint=eastwest;shadow=1;sketch=1;fillColor=#f5f5f5;strokeColor=#666666;fontColor=#333333;fontStyle=1" vertex="1" parent="bn9qM6ZARCFpn5LCWyF9-28">
          <mxGeometry y="120" width="180" height="30" as="geometry" />
        </mxCell>
        <mxCell id="bn9qM6ZARCFpn5LCWyF9-39" value="" style="shape=partialRectangle;connectable=0;top=0;left=0;bottom=0;right=0;editable=1;overflow=hidden;shadow=1;sketch=1;fillColor=#f5f5f5;strokeColor=#666666;fontColor=#333333;fontStyle=1" vertex="1" parent="bn9qM6ZARCFpn5LCWyF9-38">
          <mxGeometry width="30" height="30" as="geometry">
            <mxRectangle width="30" height="30" as="alternateBounds" />
          </mxGeometry>
        </mxCell>
        <mxCell id="bn9qM6ZARCFpn5LCWyF9-40" value="" style="shape=partialRectangle;connectable=0;top=0;left=0;bottom=0;right=0;align=left;spacingLeft=6;overflow=hidden;shadow=1;sketch=1;fillColor=#f5f5f5;strokeColor=#666666;fontColor=#333333;fontStyle=1" vertex="1" parent="bn9qM6ZARCFpn5LCWyF9-38">
          <mxGeometry x="30" width="150" height="30" as="geometry">
            <mxRectangle width="150" height="30" as="alternateBounds" />
          </mxGeometry>
        </mxCell>
        <mxCell id="bn9qM6ZARCFpn5LCWyF9-41" value="" style="edgeStyle=entityRelationEdgeStyle;endArrow=ERzeroToMany;startArrow=ERone;endFill=1;startFill=0;shadow=1;sketch=1;entryX=0;entryY=0.5;entryDx=0;entryDy=0;exitX=1;exitY=0.5;exitDx=0;exitDy=0;fontStyle=1" edge="1" parent="1" source="bn9qM6ZARCFpn5LCWyF9-35" target="bn9qM6ZARCFpn5LCWyF9-16">
          <mxGeometry width="100" height="100" relative="1" as="geometry">
            <mxPoint x="1210" y="1050" as="sourcePoint" />
            <mxPoint x="1330" y="1260" as="targetPoint" />
          </mxGeometry>
        </mxCell>
        <mxCell id="bn9qM6ZARCFpn5LCWyF9-42" value="link_menu_node" style="shape=table;startSize=30;container=1;collapsible=1;childLayout=tableLayout;fixedRows=1;rowLines=0;fontStyle=1;align=center;resizeLast=1;shadow=1;sketch=1;strokeColor=#666666;fillColor=#f5f5f5;fontSize=14;rounded=1;fontColor=#333333;" vertex="1" parent="1">
          <mxGeometry x="920" y="610" width="160" height="150" as="geometry" />
        </mxCell>
        <mxCell id="bn9qM6ZARCFpn5LCWyF9-43" value="" style="shape=partialRectangle;collapsible=0;dropTarget=0;pointerEvents=0;top=0;left=0;bottom=1;right=0;points=[[0,0.5],[1,0.5]];portConstraint=eastwest;strokeColor=#666666;fillColor=#f5f5f5;shadow=1;sketch=1;fontStyle=1;fontColor=#333333;" vertex="1" parent="bn9qM6ZARCFpn5LCWyF9-42">
          <mxGeometry y="30" width="160" height="30" as="geometry" />
        </mxCell>
        <mxCell id="bn9qM6ZARCFpn5LCWyF9-44" value="PK" style="shape=partialRectangle;connectable=0;top=0;left=0;bottom=0;right=0;fontStyle=1;overflow=hidden;strokeColor=#666666;fillColor=#f5f5f5;shadow=1;sketch=1;fontColor=#333333;" vertex="1" parent="bn9qM6ZARCFpn5LCWyF9-43">
          <mxGeometry width="30" height="30" as="geometry">
            <mxRectangle width="30" height="30" as="alternateBounds" />
          </mxGeometry>
        </mxCell>
        <mxCell id="bn9qM6ZARCFpn5LCWyF9-45" value="menu_node_id" style="shape=partialRectangle;connectable=0;top=0;left=0;bottom=0;right=0;align=left;spacingLeft=6;fontStyle=1;overflow=hidden;strokeColor=#666666;fillColor=#f5f5f5;shadow=1;sketch=1;fontColor=#333333;" vertex="1" parent="bn9qM6ZARCFpn5LCWyF9-43">
          <mxGeometry x="30" width="130" height="30" as="geometry">
            <mxRectangle width="130" height="30" as="alternateBounds" />
          </mxGeometry>
        </mxCell>
        <mxCell id="bn9qM6ZARCFpn5LCWyF9-46" value="" style="shape=partialRectangle;collapsible=0;dropTarget=0;pointerEvents=0;top=0;left=0;bottom=0;right=0;points=[[0,0.5],[1,0.5]];portConstraint=eastwest;strokeColor=#666666;fillColor=#f5f5f5;shadow=1;sketch=1;fontStyle=1;fontColor=#333333;" vertex="1" parent="bn9qM6ZARCFpn5LCWyF9-42">
          <mxGeometry y="60" width="160" height="30" as="geometry" />
        </mxCell>
        <mxCell id="bn9qM6ZARCFpn5LCWyF9-47" value="" style="shape=partialRectangle;connectable=0;top=0;left=0;bottom=0;right=0;editable=1;overflow=hidden;strokeColor=#666666;fillColor=#f5f5f5;shadow=1;sketch=1;fontStyle=1;fontColor=#333333;" vertex="1" parent="bn9qM6ZARCFpn5LCWyF9-46">
          <mxGeometry width="30" height="30" as="geometry">
            <mxRectangle width="30" height="30" as="alternateBounds" />
          </mxGeometry>
        </mxCell>
        <mxCell id="bn9qM6ZARCFpn5LCWyF9-48" value="" style="shape=partialRectangle;connectable=0;top=0;left=0;bottom=0;right=0;align=left;spacingLeft=6;overflow=hidden;strokeColor=#666666;fillColor=#f5f5f5;shadow=1;sketch=1;fontStyle=1;fontColor=#333333;" vertex="1" parent="bn9qM6ZARCFpn5LCWyF9-46">
          <mxGeometry x="30" width="130" height="30" as="geometry">
            <mxRectangle width="130" height="30" as="alternateBounds" />
          </mxGeometry>
        </mxCell>
        <mxCell id="bn9qM6ZARCFpn5LCWyF9-49" value="" style="shape=partialRectangle;collapsible=0;dropTarget=0;pointerEvents=0;top=0;left=0;bottom=0;right=0;points=[[0,0.5],[1,0.5]];portConstraint=eastwest;strokeColor=#666666;fillColor=#f5f5f5;shadow=1;sketch=1;fontStyle=1;fontColor=#333333;" vertex="1" parent="bn9qM6ZARCFpn5LCWyF9-42">
          <mxGeometry y="90" width="160" height="30" as="geometry" />
        </mxCell>
        <mxCell id="bn9qM6ZARCFpn5LCWyF9-50" value="" style="shape=partialRectangle;connectable=0;top=0;left=0;bottom=0;right=0;editable=1;overflow=hidden;strokeColor=#666666;fillColor=#f5f5f5;shadow=1;sketch=1;fontStyle=1;fontColor=#333333;" vertex="1" parent="bn9qM6ZARCFpn5LCWyF9-49">
          <mxGeometry width="30" height="30" as="geometry">
            <mxRectangle width="30" height="30" as="alternateBounds" />
          </mxGeometry>
        </mxCell>
        <mxCell id="bn9qM6ZARCFpn5LCWyF9-51" value="" style="shape=partialRectangle;connectable=0;top=0;left=0;bottom=0;right=0;align=left;spacingLeft=6;overflow=hidden;strokeColor=#666666;fillColor=#f5f5f5;shadow=1;sketch=1;fontStyle=1;fontColor=#333333;" vertex="1" parent="bn9qM6ZARCFpn5LCWyF9-49">
          <mxGeometry x="30" width="130" height="30" as="geometry">
            <mxRectangle width="130" height="30" as="alternateBounds" />
          </mxGeometry>
        </mxCell>
        <mxCell id="bn9qM6ZARCFpn5LCWyF9-52" value="" style="shape=partialRectangle;collapsible=0;dropTarget=0;pointerEvents=0;top=0;left=0;bottom=0;right=0;points=[[0,0.5],[1,0.5]];portConstraint=eastwest;strokeColor=#666666;fillColor=#f5f5f5;shadow=1;sketch=1;fontStyle=1;fontColor=#333333;" vertex="1" parent="bn9qM6ZARCFpn5LCWyF9-42">
          <mxGeometry y="120" width="160" height="30" as="geometry" />
        </mxCell>
        <mxCell id="bn9qM6ZARCFpn5LCWyF9-53" value="" style="shape=partialRectangle;connectable=0;top=0;left=0;bottom=0;right=0;editable=1;overflow=hidden;strokeColor=#666666;fillColor=#f5f5f5;shadow=1;sketch=1;fontStyle=1;fontColor=#333333;" vertex="1" parent="bn9qM6ZARCFpn5LCWyF9-52">
          <mxGeometry width="30" height="30" as="geometry">
            <mxRectangle width="30" height="30" as="alternateBounds" />
          </mxGeometry>
        </mxCell>
        <mxCell id="bn9qM6ZARCFpn5LCWyF9-54" value="business_node_id" style="shape=partialRectangle;connectable=0;top=0;left=0;bottom=0;right=0;align=left;spacingLeft=6;overflow=hidden;strokeColor=#666666;fillColor=#f5f5f5;shadow=1;sketch=1;fontStyle=1;fontColor=#333333;" vertex="1" parent="bn9qM6ZARCFpn5LCWyF9-52">
          <mxGeometry x="30" width="130" height="30" as="geometry">
            <mxRectangle width="130" height="30" as="alternateBounds" />
          </mxGeometry>
        </mxCell>
        <mxCell id="bn9qM6ZARCFpn5LCWyF9-55" value="link_business_menu_rel" style="shape=table;startSize=30;container=1;collapsible=1;childLayout=tableLayout;fixedRows=1;rowLines=0;fontStyle=1;align=center;resizeLast=1;shadow=1;sketch=1;strokeColor=#9673a6;fillColor=#e1d5e7;fontSize=14;rounded=1;" vertex="1" parent="1">
          <mxGeometry x="1250" y="485" width="210" height="150" as="geometry" />
        </mxCell>
        <mxCell id="bn9qM6ZARCFpn5LCWyF9-56" value="" style="shape=partialRectangle;collapsible=0;dropTarget=0;pointerEvents=0;top=0;left=0;bottom=1;right=0;points=[[0,0.5],[1,0.5]];portConstraint=eastwest;strokeColor=#9673a6;fillColor=#e1d5e7;shadow=1;sketch=1;fontStyle=1" vertex="1" parent="bn9qM6ZARCFpn5LCWyF9-55">
          <mxGeometry y="30" width="210" height="30" as="geometry" />
        </mxCell>
        <mxCell id="bn9qM6ZARCFpn5LCWyF9-57" value="PK" style="shape=partialRectangle;connectable=0;top=0;left=0;bottom=0;right=0;fontStyle=1;overflow=hidden;strokeColor=#9673a6;fillColor=#e1d5e7;shadow=1;sketch=1;" vertex="1" parent="bn9qM6ZARCFpn5LCWyF9-56">
          <mxGeometry width="30" height="30" as="geometry">
            <mxRectangle width="30" height="30" as="alternateBounds" />
          </mxGeometry>
        </mxCell>
        <mxCell id="bn9qM6ZARCFpn5LCWyF9-58" value="business_menu_rel_id" style="shape=partialRectangle;connectable=0;top=0;left=0;bottom=0;right=0;align=left;spacingLeft=6;fontStyle=1;overflow=hidden;strokeColor=#9673a6;fillColor=#e1d5e7;shadow=1;sketch=1;" vertex="1" parent="bn9qM6ZARCFpn5LCWyF9-56">
          <mxGeometry x="30" width="180" height="30" as="geometry">
            <mxRectangle width="180" height="30" as="alternateBounds" />
          </mxGeometry>
        </mxCell>
        <mxCell id="bn9qM6ZARCFpn5LCWyF9-59" value="" style="shape=partialRectangle;collapsible=0;dropTarget=0;pointerEvents=0;top=0;left=0;bottom=0;right=0;points=[[0,0.5],[1,0.5]];portConstraint=eastwest;strokeColor=#9673a6;fillColor=#e1d5e7;shadow=1;sketch=1;fontStyle=1" vertex="1" parent="bn9qM6ZARCFpn5LCWyF9-55">
          <mxGeometry y="60" width="210" height="30" as="geometry" />
        </mxCell>
        <mxCell id="bn9qM6ZARCFpn5LCWyF9-60" value="" style="shape=partialRectangle;connectable=0;top=0;left=0;bottom=0;right=0;editable=1;overflow=hidden;strokeColor=#9673a6;fillColor=#e1d5e7;shadow=1;sketch=1;fontStyle=1" vertex="1" parent="bn9qM6ZARCFpn5LCWyF9-59">
          <mxGeometry width="30" height="30" as="geometry">
            <mxRectangle width="30" height="30" as="alternateBounds" />
          </mxGeometry>
        </mxCell>
        <mxCell id="bn9qM6ZARCFpn5LCWyF9-61" value="menu_node_id" style="shape=partialRectangle;connectable=0;top=0;left=0;bottom=0;right=0;align=left;spacingLeft=6;overflow=hidden;strokeColor=#9673a6;fillColor=#e1d5e7;shadow=1;sketch=1;fontStyle=1" vertex="1" parent="bn9qM6ZARCFpn5LCWyF9-59">
          <mxGeometry x="30" width="180" height="30" as="geometry">
            <mxRectangle width="180" height="30" as="alternateBounds" />
          </mxGeometry>
        </mxCell>
        <mxCell id="bn9qM6ZARCFpn5LCWyF9-62" value="" style="shape=partialRectangle;collapsible=0;dropTarget=0;pointerEvents=0;top=0;left=0;bottom=0;right=0;points=[[0,0.5],[1,0.5]];portConstraint=eastwest;strokeColor=#9673a6;fillColor=#e1d5e7;shadow=1;sketch=1;fontStyle=1" vertex="1" parent="bn9qM6ZARCFpn5LCWyF9-55">
          <mxGeometry y="90" width="210" height="30" as="geometry" />
        </mxCell>
        <mxCell id="bn9qM6ZARCFpn5LCWyF9-63" value="" style="shape=partialRectangle;connectable=0;top=0;left=0;bottom=0;right=0;editable=1;overflow=hidden;strokeColor=#9673a6;fillColor=#e1d5e7;shadow=1;sketch=1;fontStyle=1" vertex="1" parent="bn9qM6ZARCFpn5LCWyF9-62">
          <mxGeometry width="30" height="30" as="geometry">
            <mxRectangle width="30" height="30" as="alternateBounds" />
          </mxGeometry>
        </mxCell>
        <mxCell id="bn9qM6ZARCFpn5LCWyF9-64" value="business_node_id" style="shape=partialRectangle;connectable=0;top=0;left=0;bottom=0;right=0;align=left;spacingLeft=6;overflow=hidden;strokeColor=#9673a6;fillColor=#e1d5e7;shadow=1;sketch=1;fontStyle=1" vertex="1" parent="bn9qM6ZARCFpn5LCWyF9-62">
          <mxGeometry x="30" width="180" height="30" as="geometry">
            <mxRectangle width="180" height="30" as="alternateBounds" />
          </mxGeometry>
        </mxCell>
        <mxCell id="bn9qM6ZARCFpn5LCWyF9-65" value="" style="shape=partialRectangle;collapsible=0;dropTarget=0;pointerEvents=0;top=0;left=0;bottom=0;right=0;points=[[0,0.5],[1,0.5]];portConstraint=eastwest;strokeColor=#9673a6;fillColor=#e1d5e7;shadow=1;sketch=1;fontStyle=1" vertex="1" parent="bn9qM6ZARCFpn5LCWyF9-55">
          <mxGeometry y="120" width="210" height="30" as="geometry" />
        </mxCell>
        <mxCell id="bn9qM6ZARCFpn5LCWyF9-66" value="" style="shape=partialRectangle;connectable=0;top=0;left=0;bottom=0;right=0;editable=1;overflow=hidden;strokeColor=#9673a6;fillColor=#e1d5e7;shadow=1;sketch=1;fontStyle=1" vertex="1" parent="bn9qM6ZARCFpn5LCWyF9-65">
          <mxGeometry width="30" height="30" as="geometry">
            <mxRectangle width="30" height="30" as="alternateBounds" />
          </mxGeometry>
        </mxCell>
        <mxCell id="bn9qM6ZARCFpn5LCWyF9-67" value="" style="shape=partialRectangle;connectable=0;top=0;left=0;bottom=0;right=0;align=left;spacingLeft=6;overflow=hidden;strokeColor=#9673a6;fillColor=#e1d5e7;shadow=1;sketch=1;fontStyle=1" vertex="1" parent="bn9qM6ZARCFpn5LCWyF9-65">
          <mxGeometry x="30" width="180" height="30" as="geometry">
            <mxRectangle width="180" height="30" as="alternateBounds" />
          </mxGeometry>
        </mxCell>
        <mxCell id="bn9qM6ZARCFpn5LCWyF9-68" value="" style="edgeStyle=entityRelationEdgeStyle;fontSize=12;html=1;endArrow=ERzeroToMany;endFill=1;shadow=1;fontColor=none;exitX=0;exitY=0.5;exitDx=0;exitDy=0;entryX=1;entryY=0.5;entryDx=0;entryDy=0;sketch=1;" edge="1" parent="1" source="bn9qM6ZARCFpn5LCWyF9-59" target="bn9qM6ZARCFpn5LCWyF9-43">
          <mxGeometry width="100" height="100" relative="1" as="geometry">
            <mxPoint x="1230" y="545" as="sourcePoint" />
            <mxPoint x="1330" y="445" as="targetPoint" />
          </mxGeometry>
        </mxCell>
        <mxCell id="bn9qM6ZARCFpn5LCWyF9-69" value="" style="edgeStyle=entityRelationEdgeStyle;fontSize=12;html=1;endArrow=ERzeroToMany;endFill=1;shadow=1;fontColor=none;exitX=1;exitY=0.5;exitDx=0;exitDy=0;entryX=1;entryY=0.5;entryDx=0;entryDy=0;sketch=1;" edge="1" parent="1" source="bn9qM6ZARCFpn5LCWyF9-16" target="bn9qM6ZARCFpn5LCWyF9-62">
          <mxGeometry width="100" height="100" relative="1" as="geometry">
            <mxPoint x="1540" y="880" as="sourcePoint" />
            <mxPoint x="1640" y="780" as="targetPoint" />
          </mxGeometry>
        </mxCell>
        <mxCell id="bn9qM6ZARCFpn5LCWyF9-70" value="link_user_role_rel" style="shape=table;startSize=30;container=1;collapsible=1;childLayout=tableLayout;fixedRows=1;rowLines=0;fontStyle=1;align=center;resizeLast=1;shadow=1;sketch=1;strokeColor=#9673a6;fillColor=#e1d5e7;fontSize=14;rounded=1;" vertex="1" parent="1">
          <mxGeometry x="340" y="550" width="160" height="150" as="geometry" />
        </mxCell>
        <mxCell id="bn9qM6ZARCFpn5LCWyF9-71" value="" style="shape=partialRectangle;collapsible=0;dropTarget=0;pointerEvents=0;top=0;left=0;bottom=1;right=0;points=[[0,0.5],[1,0.5]];portConstraint=eastwest;strokeColor=#9673a6;fillColor=#e1d5e7;shadow=1;sketch=1;fontStyle=1" vertex="1" parent="bn9qM6ZARCFpn5LCWyF9-70">
          <mxGeometry y="30" width="160" height="30" as="geometry" />
        </mxCell>
        <mxCell id="bn9qM6ZARCFpn5LCWyF9-72" value="PK" style="shape=partialRectangle;connectable=0;top=0;left=0;bottom=0;right=0;fontStyle=1;overflow=hidden;strokeColor=#9673a6;fillColor=#e1d5e7;shadow=1;sketch=1;" vertex="1" parent="bn9qM6ZARCFpn5LCWyF9-71">
          <mxGeometry width="30" height="30" as="geometry">
            <mxRectangle width="30" height="30" as="alternateBounds" />
          </mxGeometry>
        </mxCell>
        <mxCell id="bn9qM6ZARCFpn5LCWyF9-73" value="user_role_rel_id" style="shape=partialRectangle;connectable=0;top=0;left=0;bottom=0;right=0;align=left;spacingLeft=6;fontStyle=1;overflow=hidden;strokeColor=#9673a6;fillColor=#e1d5e7;shadow=1;sketch=1;" vertex="1" parent="bn9qM6ZARCFpn5LCWyF9-71">
          <mxGeometry x="30" width="130" height="30" as="geometry">
            <mxRectangle width="130" height="30" as="alternateBounds" />
          </mxGeometry>
        </mxCell>
        <mxCell id="bn9qM6ZARCFpn5LCWyF9-74" value="" style="shape=partialRectangle;collapsible=0;dropTarget=0;pointerEvents=0;top=0;left=0;bottom=0;right=0;points=[[0,0.5],[1,0.5]];portConstraint=eastwest;strokeColor=#9673a6;fillColor=#e1d5e7;shadow=1;sketch=1;fontStyle=1" vertex="1" parent="bn9qM6ZARCFpn5LCWyF9-70">
          <mxGeometry y="60" width="160" height="30" as="geometry" />
        </mxCell>
        <mxCell id="bn9qM6ZARCFpn5LCWyF9-75" value="" style="shape=partialRectangle;connectable=0;top=0;left=0;bottom=0;right=0;editable=1;overflow=hidden;strokeColor=#9673a6;fillColor=#e1d5e7;shadow=1;sketch=1;fontStyle=1" vertex="1" parent="bn9qM6ZARCFpn5LCWyF9-74">
          <mxGeometry width="30" height="30" as="geometry">
            <mxRectangle width="30" height="30" as="alternateBounds" />
          </mxGeometry>
        </mxCell>
        <mxCell id="bn9qM6ZARCFpn5LCWyF9-76" value="user_id" style="shape=partialRectangle;connectable=0;top=0;left=0;bottom=0;right=0;align=left;spacingLeft=6;overflow=hidden;strokeColor=#9673a6;fillColor=#e1d5e7;shadow=1;sketch=1;fontStyle=1" vertex="1" parent="bn9qM6ZARCFpn5LCWyF9-74">
          <mxGeometry x="30" width="130" height="30" as="geometry">
            <mxRectangle width="130" height="30" as="alternateBounds" />
          </mxGeometry>
        </mxCell>
        <mxCell id="bn9qM6ZARCFpn5LCWyF9-77" value="" style="shape=partialRectangle;collapsible=0;dropTarget=0;pointerEvents=0;top=0;left=0;bottom=0;right=0;points=[[0,0.5],[1,0.5]];portConstraint=eastwest;strokeColor=#9673a6;fillColor=#e1d5e7;shadow=1;sketch=1;fontStyle=1" vertex="1" parent="bn9qM6ZARCFpn5LCWyF9-70">
          <mxGeometry y="90" width="160" height="30" as="geometry" />
        </mxCell>
        <mxCell id="bn9qM6ZARCFpn5LCWyF9-78" value="" style="shape=partialRectangle;connectable=0;top=0;left=0;bottom=0;right=0;editable=1;overflow=hidden;strokeColor=#9673a6;fillColor=#e1d5e7;shadow=1;sketch=1;fontStyle=1" vertex="1" parent="bn9qM6ZARCFpn5LCWyF9-77">
          <mxGeometry width="30" height="30" as="geometry">
            <mxRectangle width="30" height="30" as="alternateBounds" />
          </mxGeometry>
        </mxCell>
        <mxCell id="bn9qM6ZARCFpn5LCWyF9-79" value="role_id" style="shape=partialRectangle;connectable=0;top=0;left=0;bottom=0;right=0;align=left;spacingLeft=6;overflow=hidden;strokeColor=#9673a6;fillColor=#e1d5e7;shadow=1;sketch=1;fontStyle=1" vertex="1" parent="bn9qM6ZARCFpn5LCWyF9-77">
          <mxGeometry x="30" width="130" height="30" as="geometry">
            <mxRectangle width="130" height="30" as="alternateBounds" />
          </mxGeometry>
        </mxCell>
        <mxCell id="bn9qM6ZARCFpn5LCWyF9-80" value="" style="shape=partialRectangle;collapsible=0;dropTarget=0;pointerEvents=0;top=0;left=0;bottom=0;right=0;points=[[0,0.5],[1,0.5]];portConstraint=eastwest;strokeColor=#9673a6;fillColor=#e1d5e7;shadow=1;sketch=1;fontStyle=1" vertex="1" parent="bn9qM6ZARCFpn5LCWyF9-70">
          <mxGeometry y="120" width="160" height="30" as="geometry" />
        </mxCell>
        <mxCell id="bn9qM6ZARCFpn5LCWyF9-81" value="" style="shape=partialRectangle;connectable=0;top=0;left=0;bottom=0;right=0;editable=1;overflow=hidden;strokeColor=#9673a6;fillColor=#e1d5e7;shadow=1;sketch=1;fontStyle=1" vertex="1" parent="bn9qM6ZARCFpn5LCWyF9-80">
          <mxGeometry width="30" height="30" as="geometry">
            <mxRectangle width="30" height="30" as="alternateBounds" />
          </mxGeometry>
        </mxCell>
        <mxCell id="bn9qM6ZARCFpn5LCWyF9-82" value="" style="shape=partialRectangle;connectable=0;top=0;left=0;bottom=0;right=0;align=left;spacingLeft=6;overflow=hidden;strokeColor=#9673a6;fillColor=#e1d5e7;shadow=1;sketch=1;fontStyle=1" vertex="1" parent="bn9qM6ZARCFpn5LCWyF9-80">
          <mxGeometry x="30" width="130" height="30" as="geometry">
            <mxRectangle width="130" height="30" as="alternateBounds" />
          </mxGeometry>
        </mxCell>
        <mxCell id="bn9qM6ZARCFpn5LCWyF9-83" value="link_user" style="shape=table;startSize=30;container=1;collapsible=1;childLayout=tableLayout;fixedRows=1;rowLines=0;fontStyle=1;align=center;resizeLast=1;shadow=1;sketch=1;strokeColor=#6c8ebf;fillColor=#dae8fc;fontSize=14;rounded=1;" vertex="1" parent="1">
          <mxGeometry x="702.5" y="370" width="135" height="150" as="geometry" />
        </mxCell>
        <mxCell id="bn9qM6ZARCFpn5LCWyF9-84" value="" style="shape=partialRectangle;collapsible=0;dropTarget=0;pointerEvents=0;top=0;left=0;bottom=1;right=0;points=[[0,0.5],[1,0.5]];portConstraint=eastwest;strokeColor=#6c8ebf;fillColor=#dae8fc;shadow=1;sketch=1;fontStyle=1" vertex="1" parent="bn9qM6ZARCFpn5LCWyF9-83">
          <mxGeometry y="30" width="135" height="30" as="geometry" />
        </mxCell>
        <mxCell id="bn9qM6ZARCFpn5LCWyF9-85" value="PK" style="shape=partialRectangle;connectable=0;top=0;left=0;bottom=0;right=0;fontStyle=1;overflow=hidden;strokeColor=#6c8ebf;fillColor=#dae8fc;shadow=1;sketch=1;" vertex="1" parent="bn9qM6ZARCFpn5LCWyF9-84">
          <mxGeometry width="30" height="30" as="geometry">
            <mxRectangle width="30" height="30" as="alternateBounds" />
          </mxGeometry>
        </mxCell>
        <mxCell id="bn9qM6ZARCFpn5LCWyF9-86" value="user_id" style="shape=partialRectangle;connectable=0;top=0;left=0;bottom=0;right=0;align=left;spacingLeft=6;fontStyle=1;overflow=hidden;strokeColor=#6c8ebf;fillColor=#dae8fc;shadow=1;sketch=1;" vertex="1" parent="bn9qM6ZARCFpn5LCWyF9-84">
          <mxGeometry x="30" width="105" height="30" as="geometry">
            <mxRectangle width="105" height="30" as="alternateBounds" />
          </mxGeometry>
        </mxCell>
        <mxCell id="bn9qM6ZARCFpn5LCWyF9-87" value="" style="shape=partialRectangle;collapsible=0;dropTarget=0;pointerEvents=0;top=0;left=0;bottom=0;right=0;points=[[0,0.5],[1,0.5]];portConstraint=eastwest;strokeColor=#6c8ebf;fillColor=#dae8fc;shadow=1;sketch=1;fontStyle=1" vertex="1" parent="bn9qM6ZARCFpn5LCWyF9-83">
          <mxGeometry y="60" width="135" height="30" as="geometry" />
        </mxCell>
        <mxCell id="bn9qM6ZARCFpn5LCWyF9-88" value="" style="shape=partialRectangle;connectable=0;top=0;left=0;bottom=0;right=0;editable=1;overflow=hidden;strokeColor=#6c8ebf;fillColor=#dae8fc;shadow=1;sketch=1;fontStyle=1" vertex="1" parent="bn9qM6ZARCFpn5LCWyF9-87">
          <mxGeometry width="30" height="30" as="geometry">
            <mxRectangle width="30" height="30" as="alternateBounds" />
          </mxGeometry>
        </mxCell>
        <mxCell id="bn9qM6ZARCFpn5LCWyF9-89" value="" style="shape=partialRectangle;connectable=0;top=0;left=0;bottom=0;right=0;align=left;spacingLeft=6;overflow=hidden;strokeColor=#6c8ebf;fillColor=#dae8fc;shadow=1;sketch=1;fontStyle=1" vertex="1" parent="bn9qM6ZARCFpn5LCWyF9-87">
          <mxGeometry x="30" width="105" height="30" as="geometry">
            <mxRectangle width="105" height="30" as="alternateBounds" />
          </mxGeometry>
        </mxCell>
        <mxCell id="bn9qM6ZARCFpn5LCWyF9-90" value="" style="shape=partialRectangle;collapsible=0;dropTarget=0;pointerEvents=0;top=0;left=0;bottom=0;right=0;points=[[0,0.5],[1,0.5]];portConstraint=eastwest;strokeColor=#6c8ebf;fillColor=#dae8fc;shadow=1;sketch=1;fontStyle=1" vertex="1" parent="bn9qM6ZARCFpn5LCWyF9-83">
          <mxGeometry y="90" width="135" height="30" as="geometry" />
        </mxCell>
        <mxCell id="bn9qM6ZARCFpn5LCWyF9-91" value="" style="shape=partialRectangle;connectable=0;top=0;left=0;bottom=0;right=0;editable=1;overflow=hidden;strokeColor=#6c8ebf;fillColor=#dae8fc;shadow=1;sketch=1;fontStyle=1" vertex="1" parent="bn9qM6ZARCFpn5LCWyF9-90">
          <mxGeometry width="30" height="30" as="geometry">
            <mxRectangle width="30" height="30" as="alternateBounds" />
          </mxGeometry>
        </mxCell>
        <mxCell id="bn9qM6ZARCFpn5LCWyF9-92" value="" style="shape=partialRectangle;connectable=0;top=0;left=0;bottom=0;right=0;align=left;spacingLeft=6;overflow=hidden;strokeColor=#6c8ebf;fillColor=#dae8fc;shadow=1;sketch=1;fontStyle=1" vertex="1" parent="bn9qM6ZARCFpn5LCWyF9-90">
          <mxGeometry x="30" width="105" height="30" as="geometry">
            <mxRectangle width="105" height="30" as="alternateBounds" />
          </mxGeometry>
        </mxCell>
        <mxCell id="bn9qM6ZARCFpn5LCWyF9-93" value="" style="shape=partialRectangle;collapsible=0;dropTarget=0;pointerEvents=0;top=0;left=0;bottom=0;right=0;points=[[0,0.5],[1,0.5]];portConstraint=eastwest;strokeColor=#6c8ebf;fillColor=#dae8fc;shadow=1;sketch=1;fontStyle=1" vertex="1" parent="bn9qM6ZARCFpn5LCWyF9-83">
          <mxGeometry y="120" width="135" height="30" as="geometry" />
        </mxCell>
        <mxCell id="bn9qM6ZARCFpn5LCWyF9-94" value="" style="shape=partialRectangle;connectable=0;top=0;left=0;bottom=0;right=0;editable=1;overflow=hidden;strokeColor=#6c8ebf;fillColor=#dae8fc;shadow=1;sketch=1;fontStyle=1" vertex="1" parent="bn9qM6ZARCFpn5LCWyF9-93">
          <mxGeometry width="30" height="30" as="geometry">
            <mxRectangle width="30" height="30" as="alternateBounds" />
          </mxGeometry>
        </mxCell>
        <mxCell id="bn9qM6ZARCFpn5LCWyF9-95" value="" style="shape=partialRectangle;connectable=0;top=0;left=0;bottom=0;right=0;align=left;spacingLeft=6;overflow=hidden;strokeColor=#6c8ebf;fillColor=#dae8fc;shadow=1;sketch=1;fontStyle=1" vertex="1" parent="bn9qM6ZARCFpn5LCWyF9-93">
          <mxGeometry x="30" width="105" height="30" as="geometry">
            <mxRectangle width="105" height="30" as="alternateBounds" />
          </mxGeometry>
        </mxCell>
        <mxCell id="bn9qM6ZARCFpn5LCWyF9-96" value="" style="edgeStyle=entityRelationEdgeStyle;endArrow=ERzeroToMany;startArrow=ERone;endFill=1;startFill=0;shadow=1;sketch=1;entryX=1;entryY=0.5;entryDx=0;entryDy=0;fontStyle=1;exitX=0;exitY=0.5;exitDx=0;exitDy=0;" edge="1" parent="1" source="bn9qM6ZARCFpn5LCWyF9-84" target="bn9qM6ZARCFpn5LCWyF9-74">
          <mxGeometry width="100" height="100" relative="1" as="geometry">
            <mxPoint x="630" y="340" as="sourcePoint" />
            <mxPoint x="730" y="630" as="targetPoint" />
          </mxGeometry>
        </mxCell>
        <mxCell id="bn9qM6ZARCFpn5LCWyF9-97" value="" style="edgeStyle=entityRelationEdgeStyle;endArrow=ERzeroToMany;startArrow=ERone;endFill=1;startFill=0;shadow=1;sketch=1;entryX=1;entryY=0.5;entryDx=0;entryDy=0;fontStyle=1;exitX=0;exitY=0.5;exitDx=0;exitDy=0;" edge="1" parent="1" source="bn9qM6ZARCFpn5LCWyF9-3" target="bn9qM6ZARCFpn5LCWyF9-77">
          <mxGeometry width="100" height="100" relative="1" as="geometry">
            <mxPoint x="580" y="800" as="sourcePoint" />
            <mxPoint x="480" y="980" as="targetPoint" />
          </mxGeometry>
        </mxCell>
        <mxCell id="bn9qM6ZARCFpn5LCWyF9-98" value="&lt;pre&gt;&lt;font style=&quot;font-size: 14px&quot; face=&quot;Verdana&quot;&gt;&lt;b&gt;用户信息表&lt;/b&gt;&lt;/font&gt;&lt;/pre&gt;" style="text;html=1;align=center;verticalAlign=middle;resizable=0;points=[];autosize=1;strokeColor=none;fontSize=14;fontColor=none;" vertex="1" parent="1">
          <mxGeometry x="712.5" y="320" width="90" height="50" as="geometry" />
        </mxCell>
        <mxCell id="bn9qM6ZARCFpn5LCWyF9-99" value="&lt;pre style=&quot;text-align: center ; text-indent: 0px ; background-color: rgb(248 , 249 , 250)&quot;&gt;&lt;font face=&quot;Verdana&quot;&gt;&lt;b&gt;用户角色关联表&lt;/b&gt;&lt;/font&gt;&lt;br&gt;&lt;/pre&gt;" style="text;whiteSpace=wrap;html=1;fontSize=14;fontColor=none;" vertex="1" parent="1">
          <mxGeometry x="370" y="500" width="100" height="60" as="geometry" />
        </mxCell>
        <mxCell id="bn9qM6ZARCFpn5LCWyF9-100" value="&lt;pre style=&quot;text-align: center ; text-indent: 0px ; background-color: rgb(248 , 249 , 250)&quot;&gt;&lt;span style=&quot;font-family: &amp;#34;helvetica&amp;#34;&quot;&gt;&lt;b&gt;应用角色表&lt;/b&gt;&lt;/span&gt;&lt;br&gt;&lt;/pre&gt;" style="text;whiteSpace=wrap;html=1;fontSize=14;fontColor=none;" vertex="1" parent="1">
          <mxGeometry x="735" y="750" width="90" height="30" as="geometry" />
        </mxCell>
        <mxCell id="bn9qM6ZARCFpn5LCWyF9-101" value="&lt;b&gt;角色业务关联表&lt;/b&gt;" style="text;html=1;align=center;verticalAlign=middle;resizable=0;points=[];autosize=1;strokeColor=none;fontSize=14;fontColor=none;" vertex="1" parent="1">
          <mxGeometry x="1000" y="1030" width="110" height="20" as="geometry" />
        </mxCell>
        <mxCell id="bn9qM6ZARCFpn5LCWyF9-102" value="&lt;b&gt;业务节点表&lt;/b&gt;" style="text;html=1;align=center;verticalAlign=middle;resizable=0;points=[];autosize=1;strokeColor=none;fontSize=14;fontColor=none;" vertex="1" parent="1">
          <mxGeometry x="1330" y="750" width="90" height="20" as="geometry" />
        </mxCell>
        <mxCell id="bn9qM6ZARCFpn5LCWyF9-103" value="&lt;b&gt;&lt;strike&gt;业务菜单关联表（废弃）&lt;/strike&gt;&lt;/b&gt;" style="text;html=1;align=center;verticalAlign=middle;resizable=0;points=[];autosize=1;strokeColor=none;fontSize=14;fontColor=none;" vertex="1" parent="1">
          <mxGeometry x="1270" y="455" width="170" height="20" as="geometry" />
        </mxCell>
        <mxCell id="bn9qM6ZARCFpn5LCWyF9-104" value="&lt;b&gt;菜单节点表&lt;/b&gt;" style="text;whiteSpace=wrap;html=1;fontSize=14;fontColor=none;" vertex="1" parent="1">
          <mxGeometry x="960" y="570" width="80" height="30" as="geometry" />
        </mxCell>
        <mxCell id="bn9qM6ZARCFpn5LCWyF9-105" value="link_data_permission" style="shape=table;startSize=30;container=1;collapsible=1;childLayout=tableLayout;fixedRows=1;rowLines=0;fontStyle=1;align=center;resizeLast=1;shadow=1;sketch=1;strokeColor=#82b366;fillColor=#d5e8d4;fontSize=14;rounded=1;" vertex="1" parent="1">
          <mxGeometry x="300" y="1120" width="170" height="150" as="geometry" />
        </mxCell>
        <mxCell id="bn9qM6ZARCFpn5LCWyF9-106" value="" style="shape=partialRectangle;collapsible=0;dropTarget=0;pointerEvents=0;top=0;left=0;bottom=1;right=0;points=[[0,0.5],[1,0.5]];portConstraint=eastwest;strokeColor=#82b366;fillColor=#d5e8d4;shadow=1;sketch=1;fontStyle=1" vertex="1" parent="bn9qM6ZARCFpn5LCWyF9-105">
          <mxGeometry y="30" width="170" height="30" as="geometry" />
        </mxCell>
        <mxCell id="bn9qM6ZARCFpn5LCWyF9-107" value="PK" style="shape=partialRectangle;connectable=0;top=0;left=0;bottom=0;right=0;fontStyle=1;overflow=hidden;strokeColor=#82b366;fillColor=#d5e8d4;shadow=1;sketch=1;" vertex="1" parent="bn9qM6ZARCFpn5LCWyF9-106">
          <mxGeometry width="30" height="30" as="geometry">
            <mxRectangle width="30" height="30" as="alternateBounds" />
          </mxGeometry>
        </mxCell>
        <mxCell id="bn9qM6ZARCFpn5LCWyF9-108" value="data_permission_id" style="shape=partialRectangle;connectable=0;top=0;left=0;bottom=0;right=0;align=left;spacingLeft=6;fontStyle=1;overflow=hidden;strokeColor=#82b366;fillColor=#d5e8d4;shadow=1;sketch=1;" vertex="1" parent="bn9qM6ZARCFpn5LCWyF9-106">
          <mxGeometry x="30" width="140" height="30" as="geometry">
            <mxRectangle width="140" height="30" as="alternateBounds" />
          </mxGeometry>
        </mxCell>
        <mxCell id="bn9qM6ZARCFpn5LCWyF9-109" value="" style="shape=partialRectangle;collapsible=0;dropTarget=0;pointerEvents=0;top=0;left=0;bottom=0;right=0;points=[[0,0.5],[1,0.5]];portConstraint=eastwest;strokeColor=#82b366;fillColor=#d5e8d4;shadow=1;sketch=1;fontStyle=1" vertex="1" parent="bn9qM6ZARCFpn5LCWyF9-105">
          <mxGeometry y="60" width="170" height="30" as="geometry" />
        </mxCell>
        <mxCell id="bn9qM6ZARCFpn5LCWyF9-110" value="" style="shape=partialRectangle;connectable=0;top=0;left=0;bottom=0;right=0;editable=1;overflow=hidden;strokeColor=#82b366;fillColor=#d5e8d4;shadow=1;sketch=1;fontStyle=1" vertex="1" parent="bn9qM6ZARCFpn5LCWyF9-109">
          <mxGeometry width="30" height="30" as="geometry">
            <mxRectangle width="30" height="30" as="alternateBounds" />
          </mxGeometry>
        </mxCell>
        <mxCell id="bn9qM6ZARCFpn5LCWyF9-111" value="role_id" style="shape=partialRectangle;connectable=0;top=0;left=0;bottom=0;right=0;align=left;spacingLeft=6;overflow=hidden;strokeColor=#82b366;fillColor=#d5e8d4;shadow=1;sketch=1;fontStyle=1" vertex="1" parent="bn9qM6ZARCFpn5LCWyF9-109">
          <mxGeometry x="30" width="140" height="30" as="geometry">
            <mxRectangle width="140" height="30" as="alternateBounds" />
          </mxGeometry>
        </mxCell>
        <mxCell id="bn9qM6ZARCFpn5LCWyF9-112" value="" style="shape=partialRectangle;collapsible=0;dropTarget=0;pointerEvents=0;top=0;left=0;bottom=0;right=0;points=[[0,0.5],[1,0.5]];portConstraint=eastwest;strokeColor=#82b366;fillColor=#d5e8d4;shadow=1;sketch=1;fontStyle=1" vertex="1" parent="bn9qM6ZARCFpn5LCWyF9-105">
          <mxGeometry y="90" width="170" height="30" as="geometry" />
        </mxCell>
        <mxCell id="bn9qM6ZARCFpn5LCWyF9-113" value="" style="shape=partialRectangle;connectable=0;top=0;left=0;bottom=0;right=0;editable=1;overflow=hidden;strokeColor=#82b366;fillColor=#d5e8d4;shadow=1;sketch=1;fontStyle=1" vertex="1" parent="bn9qM6ZARCFpn5LCWyF9-112">
          <mxGeometry width="30" height="30" as="geometry">
            <mxRectangle width="30" height="30" as="alternateBounds" />
          </mxGeometry>
        </mxCell>
        <mxCell id="bn9qM6ZARCFpn5LCWyF9-114" value="" style="shape=partialRectangle;connectable=0;top=0;left=0;bottom=0;right=0;align=left;spacingLeft=6;overflow=hidden;strokeColor=#82b366;fillColor=#d5e8d4;shadow=1;sketch=1;fontStyle=1" vertex="1" parent="bn9qM6ZARCFpn5LCWyF9-112">
          <mxGeometry x="30" width="140" height="30" as="geometry">
            <mxRectangle width="140" height="30" as="alternateBounds" />
          </mxGeometry>
        </mxCell>
        <mxCell id="bn9qM6ZARCFpn5LCWyF9-115" value="" style="shape=partialRectangle;collapsible=0;dropTarget=0;pointerEvents=0;top=0;left=0;bottom=0;right=0;points=[[0,0.5],[1,0.5]];portConstraint=eastwest;strokeColor=#82b366;fillColor=#d5e8d4;shadow=1;sketch=1;fontStyle=1" vertex="1" parent="bn9qM6ZARCFpn5LCWyF9-105">
          <mxGeometry y="120" width="170" height="30" as="geometry" />
        </mxCell>
        <mxCell id="bn9qM6ZARCFpn5LCWyF9-116" value="" style="shape=partialRectangle;connectable=0;top=0;left=0;bottom=0;right=0;editable=1;overflow=hidden;strokeColor=#82b366;fillColor=#d5e8d4;shadow=1;sketch=1;fontStyle=1" vertex="1" parent="bn9qM6ZARCFpn5LCWyF9-115">
          <mxGeometry width="30" height="30" as="geometry">
            <mxRectangle width="30" height="30" as="alternateBounds" />
          </mxGeometry>
        </mxCell>
        <mxCell id="bn9qM6ZARCFpn5LCWyF9-117" value="" style="shape=partialRectangle;connectable=0;top=0;left=0;bottom=0;right=0;align=left;spacingLeft=6;overflow=hidden;strokeColor=#82b366;fillColor=#d5e8d4;shadow=1;sketch=1;fontStyle=1" vertex="1" parent="bn9qM6ZARCFpn5LCWyF9-115">
          <mxGeometry x="30" width="140" height="30" as="geometry">
            <mxRectangle width="140" height="30" as="alternateBounds" />
          </mxGeometry>
        </mxCell>
        <mxCell id="bn9qM6ZARCFpn5LCWyF9-118" value="link_role_data_permission_rel" style="shape=table;startSize=30;container=1;collapsible=1;childLayout=tableLayout;fixedRows=1;rowLines=0;fontStyle=1;align=center;resizeLast=1;shadow=1;sketch=1;strokeColor=#82b366;fillColor=#d5e8d4;fontSize=14;rounded=1;" vertex="1" parent="1">
          <mxGeometry x="280" y="880" width="230" height="150" as="geometry" />
        </mxCell>
        <mxCell id="bn9qM6ZARCFpn5LCWyF9-119" value="" style="shape=partialRectangle;collapsible=0;dropTarget=0;pointerEvents=0;top=0;left=0;bottom=1;right=0;points=[[0,0.5],[1,0.5]];portConstraint=eastwest;strokeColor=#82b366;fillColor=#d5e8d4;shadow=1;sketch=1;fontStyle=1" vertex="1" parent="bn9qM6ZARCFpn5LCWyF9-118">
          <mxGeometry y="30" width="230" height="30" as="geometry" />
        </mxCell>
        <mxCell id="bn9qM6ZARCFpn5LCWyF9-120" value="PK" style="shape=partialRectangle;connectable=0;top=0;left=0;bottom=0;right=0;fontStyle=1;overflow=hidden;strokeColor=#82b366;fillColor=#d5e8d4;shadow=1;sketch=1;" vertex="1" parent="bn9qM6ZARCFpn5LCWyF9-119">
          <mxGeometry width="30" height="30" as="geometry">
            <mxRectangle width="30" height="30" as="alternateBounds" />
          </mxGeometry>
        </mxCell>
        <mxCell id="bn9qM6ZARCFpn5LCWyF9-121" value="role_data_permission_rel_id" style="shape=partialRectangle;connectable=0;top=0;left=0;bottom=0;right=0;align=left;spacingLeft=6;fontStyle=1;overflow=hidden;strokeColor=#82b366;fillColor=#d5e8d4;shadow=1;sketch=1;" vertex="1" parent="bn9qM6ZARCFpn5LCWyF9-119">
          <mxGeometry x="30" width="200" height="30" as="geometry">
            <mxRectangle width="200" height="30" as="alternateBounds" />
          </mxGeometry>
        </mxCell>
        <mxCell id="bn9qM6ZARCFpn5LCWyF9-122" value="" style="shape=partialRectangle;collapsible=0;dropTarget=0;pointerEvents=0;top=0;left=0;bottom=0;right=0;points=[[0,0.5],[1,0.5]];portConstraint=eastwest;strokeColor=#82b366;fillColor=#d5e8d4;shadow=1;sketch=1;fontStyle=1" vertex="1" parent="bn9qM6ZARCFpn5LCWyF9-118">
          <mxGeometry y="60" width="230" height="30" as="geometry" />
        </mxCell>
        <mxCell id="bn9qM6ZARCFpn5LCWyF9-123" value="" style="shape=partialRectangle;connectable=0;top=0;left=0;bottom=0;right=0;editable=1;overflow=hidden;strokeColor=#82b366;fillColor=#d5e8d4;shadow=1;sketch=1;fontStyle=1" vertex="1" parent="bn9qM6ZARCFpn5LCWyF9-122">
          <mxGeometry width="30" height="30" as="geometry">
            <mxRectangle width="30" height="30" as="alternateBounds" />
          </mxGeometry>
        </mxCell>
        <mxCell id="bn9qM6ZARCFpn5LCWyF9-124" value="role_id" style="shape=partialRectangle;connectable=0;top=0;left=0;bottom=0;right=0;align=left;spacingLeft=6;overflow=hidden;strokeColor=#82b366;fillColor=#d5e8d4;shadow=1;sketch=1;fontStyle=1" vertex="1" parent="bn9qM6ZARCFpn5LCWyF9-122">
          <mxGeometry x="30" width="200" height="30" as="geometry">
            <mxRectangle width="200" height="30" as="alternateBounds" />
          </mxGeometry>
        </mxCell>
        <mxCell id="bn9qM6ZARCFpn5LCWyF9-125" value="" style="shape=partialRectangle;collapsible=0;dropTarget=0;pointerEvents=0;top=0;left=0;bottom=0;right=0;points=[[0,0.5],[1,0.5]];portConstraint=eastwest;strokeColor=#82b366;fillColor=#d5e8d4;shadow=1;sketch=1;fontStyle=1" vertex="1" parent="bn9qM6ZARCFpn5LCWyF9-118">
          <mxGeometry y="90" width="230" height="30" as="geometry" />
        </mxCell>
        <mxCell id="bn9qM6ZARCFpn5LCWyF9-126" value="" style="shape=partialRectangle;connectable=0;top=0;left=0;bottom=0;right=0;editable=1;overflow=hidden;strokeColor=#82b366;fillColor=#d5e8d4;shadow=1;sketch=1;fontStyle=1" vertex="1" parent="bn9qM6ZARCFpn5LCWyF9-125">
          <mxGeometry width="30" height="30" as="geometry">
            <mxRectangle width="30" height="30" as="alternateBounds" />
          </mxGeometry>
        </mxCell>
        <mxCell id="bn9qM6ZARCFpn5LCWyF9-127" value="business_node_id" style="shape=partialRectangle;connectable=0;top=0;left=0;bottom=0;right=0;align=left;spacingLeft=6;overflow=hidden;strokeColor=#82b366;fillColor=#d5e8d4;shadow=1;sketch=1;fontStyle=1" vertex="1" parent="bn9qM6ZARCFpn5LCWyF9-125">
          <mxGeometry x="30" width="200" height="30" as="geometry">
            <mxRectangle width="200" height="30" as="alternateBounds" />
          </mxGeometry>
        </mxCell>
        <mxCell id="bn9qM6ZARCFpn5LCWyF9-128" value="" style="shape=partialRectangle;collapsible=0;dropTarget=0;pointerEvents=0;top=0;left=0;bottom=0;right=0;points=[[0,0.5],[1,0.5]];portConstraint=eastwest;strokeColor=#82b366;fillColor=#d5e8d4;shadow=1;sketch=1;fontStyle=1" vertex="1" parent="bn9qM6ZARCFpn5LCWyF9-118">
          <mxGeometry y="120" width="230" height="30" as="geometry" />
        </mxCell>
        <mxCell id="bn9qM6ZARCFpn5LCWyF9-129" value="" style="shape=partialRectangle;connectable=0;top=0;left=0;bottom=0;right=0;editable=1;overflow=hidden;strokeColor=#82b366;fillColor=#d5e8d4;shadow=1;sketch=1;fontStyle=1" vertex="1" parent="bn9qM6ZARCFpn5LCWyF9-128">
          <mxGeometry width="30" height="30" as="geometry">
            <mxRectangle width="30" height="30" as="alternateBounds" />
          </mxGeometry>
        </mxCell>
        <mxCell id="bn9qM6ZARCFpn5LCWyF9-130" value="" style="shape=partialRectangle;connectable=0;top=0;left=0;bottom=0;right=0;align=left;spacingLeft=6;overflow=hidden;strokeColor=#82b366;fillColor=#d5e8d4;shadow=1;sketch=1;fontStyle=1" vertex="1" parent="bn9qM6ZARCFpn5LCWyF9-128">
          <mxGeometry x="30" width="200" height="30" as="geometry">
            <mxRectangle width="200" height="30" as="alternateBounds" />
          </mxGeometry>
        </mxCell>
        <mxCell id="bn9qM6ZARCFpn5LCWyF9-131" value="" style="edgeStyle=entityRelationEdgeStyle;endArrow=ERzeroToMany;startArrow=ERone;endFill=1;startFill=0;shadow=1;sketch=1;entryX=1;entryY=0.5;entryDx=0;entryDy=0;fontStyle=1;exitX=0;exitY=0.5;exitDx=0;exitDy=0;" edge="1" parent="1" source="bn9qM6ZARCFpn5LCWyF9-3" target="bn9qM6ZARCFpn5LCWyF9-122">
          <mxGeometry width="100" height="100" relative="1" as="geometry">
            <mxPoint x="730" y="805" as="sourcePoint" />
            <mxPoint x="510" y="665" as="targetPoint" />
          </mxGeometry>
        </mxCell>
        <mxCell id="bn9qM6ZARCFpn5LCWyF9-132" value="&lt;b&gt;&lt;strike&gt;数据权限表（废弃）&lt;/strike&gt;&lt;/b&gt;" style="text;whiteSpace=wrap;html=1;fontSize=14;fontColor=none;" vertex="1" parent="1">
          <mxGeometry x="321.25" y="1090" width="127.5" height="30" as="geometry" />
        </mxCell>
        <mxCell id="bn9qM6ZARCFpn5LCWyF9-133" value="&lt;b&gt;角色数据权限关系表&lt;/b&gt;" style="text;whiteSpace=wrap;html=1;fontSize=14;fontColor=none;" vertex="1" parent="1">
          <mxGeometry x="330" y="850" width="150" height="30" as="geometry" />
        </mxCell>
        <mxCell id="bn9qM6ZARCFpn5LCWyF9-134" value="" style="edgeStyle=entityRelationEdgeStyle;endArrow=ERzeroToMany;startArrow=ERone;endFill=1;startFill=0;shadow=1;sketch=1;entryX=1;entryY=0.5;entryDx=0;entryDy=0;fontStyle=1;exitX=0;exitY=0.5;exitDx=0;exitDy=0;" edge="1" parent="1" source="bn9qM6ZARCFpn5LCWyF9-3" target="bn9qM6ZARCFpn5LCWyF9-109">
          <mxGeometry width="100" height="100" relative="1" as="geometry">
            <mxPoint x="730" y="805" as="sourcePoint" />
            <mxPoint x="520" y="965" as="targetPoint" />
          </mxGeometry>
        </mxCell>
        <mxCell id="bn9qM6ZARCFpn5LCWyF9-135" value="" style="edgeStyle=entityRelationEdgeStyle;endArrow=ERzeroToMany;startArrow=ERone;endFill=1;startFill=0;shadow=1;sketch=1;entryX=1;entryY=0.5;entryDx=0;entryDy=0;exitX=0;exitY=0.5;exitDx=0;exitDy=0;fontStyle=1" edge="1" parent="1" source="bn9qM6ZARCFpn5LCWyF9-16" target="bn9qM6ZARCFpn5LCWyF9-52">
          <mxGeometry width="100" height="100" relative="1" as="geometry">
            <mxPoint x="1140" y="865" as="sourcePoint" />
            <mxPoint x="1260" y="665" as="targetPoint" />
          </mxGeometry>
        </mxCell>
      </root>
    </mxGraphModel>
  </diagram>
</mxfile>
